<svg width="945" height="945" viewBox="0 0 945 945" fill="none" xmlns="http://www.w3.org/2000/svg">
<path d="M236 475.5L472.5 369V616L236 475.5Z" fill="#646A92"/>
<path d="M709.5 475.5L472.5 369V616L709.5 475.5Z" fill="#484D7A"/>
<path d="M473 863.5L236 531L473 670V863.5Z" fill="#484D7A"/>
<path d="M473 864L710 531L473 670.209V864Z" fill="#646A92"/>
<path d="M473 367.222L236 477L473 82V367.222Z" fill="#9199B9"/>
<path d="M473 367.222L710 477L473 82V367.222Z" fill="#646A92"/>
<path d="M472.5 369L472.705 368.544L472.5 368.452L472.295 368.544L472.5 369ZM236 475.5L235.795 475.044L234.918 475.439L235.745 475.93L236 475.5ZM472.5 616L472.245 616.43L472.5 616.581L472.755 616.43L472.5 616ZM709.5 475.5L709.755 475.93L710.584 475.439L709.705 475.044L709.5 475.5ZM236 531L236.253 530.569L235.593 531.29L236 531ZM473 863.5L472.593 863.79L473.5 865.063V863.5H473ZM473 670H473.5V669.714L473.253 669.569L473 670ZM710 531L710.407 531.29L709.747 530.569L710 531ZM473 864H472.5V865.565L473.407 864.29L473 864ZM473 670.209L472.747 669.778L472.5 669.923V670.209H473ZM236 477L235.571 476.743L234.735 478.137L236.21 477.454L236 477ZM473 82L473.429 81.7428L473 81.0282L472.571 81.7428L473 82ZM710 477L709.79 477.454L711.265 478.137L710.429 476.743L710 477ZM472.295 368.544L235.795 475.044L236.205 475.956L472.705 369.456L472.295 368.544ZM235.745 475.93L472.245 616.43L472.755 615.57L236.255 475.07L235.745 475.93ZM473 616V369H472V616H473ZM472.295 369.456L709.295 475.956L709.705 475.044L472.705 368.544L472.295 369.456ZM709.245 475.07L472.245 615.57L472.755 616.43L709.755 475.93L709.245 475.07ZM235.593 531.29L472.593 863.79L473.407 863.21L236.407 530.71L235.593 531.29ZM473.5 863.5V670H472.5V863.5H473.5ZM473.253 669.569L236.253 530.569L235.747 531.431L472.747 670.431L473.253 669.569ZM709.593 530.71L472.593 863.71L473.407 864.29L710.407 531.29L709.593 530.71ZM473.5 864V670.209H472.5V864H473.5ZM473.253 670.64L710.253 531.431L709.747 530.569L472.747 669.778L473.253 670.64ZM236.21 477.454L473.21 367.676L472.79 366.768L235.79 476.546L236.21 477.454ZM473.5 367.222V82H472.5V367.222H473.5ZM472.571 81.7428L235.571 476.743L236.429 477.257L473.429 82.2572L472.571 81.7428ZM710.21 476.546L473.21 366.768L472.79 367.676L709.79 477.454L710.21 476.546ZM472.571 82.2572L709.571 477.257L710.429 476.743L473.429 81.7428L472.571 82.2572Z" fill="black"/>
</svg>
