<?xml version="1.0" encoding="UTF-8"?>
<svg fill="none" viewBox="0 0 1008 1000" xmlns="http://www.w3.org/2000/svg">
<path d="m960.5 492.5c0 262.07-204.89 474-457 474s-457-211.93-457-474 204.89-474 457-474 457 211.93 457 474z" stroke="#000" stroke-width="17"/>
<g filter="url(#a)">
<path d="m763.9 495.43c6.883 40.325-325.11 248.47-394.85 291.7-5.821 3.608-13.122-0.459-13.422-7.301-4.08-93.117-24.379-583.09 0.678-574.72 27.685 9.241 399.9 245.28 407.59 290.33z" fill="#0CE5D8"/>
<path d="m763.9 495.43c6.883 40.325-325.11 248.47-394.85 291.7-5.821 3.608-13.122-0.459-13.422-7.301-4.08-93.117-24.379-583.09 0.678-574.72 27.685 9.241 399.9 245.28 407.59 290.33z" stroke="#000" stroke-width="10"/>
</g>
<path d="m0 0v-5h-5v5h5zm1008 0h5v-5h-5v5zm0 1e3v5h5v-5h-5zm-1008 0h-5v5h5v-5zm0-995h1008v-10h-1008v10zm1003-5v1e3h10v-1e3h-10zm5 995h-1008v10h1008v-10zm-1003 5v-1e3h-10v1e3h10z" fill="#000"/>
<defs>
<filter id="a" x="335" y="199.99" width="438" height="601.5" color-interpolation-filters="sRGB" filterUnits="userSpaceOnUse">
<feFlood flood-opacity="0" result="BackgroundImageFix"/>
<feColorMatrix in="SourceAlpha" result="hardAlpha" values="0 0 0 0 0 0 0 0 0 0 0 0 0 0 0 0 0 0 127 0"/>
<feOffset dy="4"/>
<feGaussianBlur stdDeviation="2"/>
<feComposite in2="hardAlpha" operator="out"/>
<feColorMatrix values="0 0 0 0 0 0 0 0 0 0 0 0 0 0 0 0 0 0 0.25 0"/>
<feBlend in2="BackgroundImageFix" result="effect1_dropShadow_42_32"/>
<feBlend in="SourceGraphic" in2="effect1_dropShadow_42_32" result="shape"/>
</filter>
</defs>
</svg>
