<svg width="1008" height="1000" viewBox="0 0 1008 1000" fill="none" xmlns="http://www.w3.org/2000/svg">
<g filter="url(#filter0_d_50_51)">
<path d="M800.866 494.178C809.747 546.241 375.709 817.781 294.625 868.006C288.802 871.613 281.312 868.047 281.01 861.204C276.323 755.003 249.324 113.33 281.674 124.135C316.94 135.913 791.07 436.758 800.866 494.178Z" fill="#0CE5D8"/>
<path d="M800.866 494.178C809.747 546.241 375.709 817.781 294.625 868.006C288.802 871.613 281.312 868.047 281.01 861.204C276.323 755.003 249.324 113.33 281.674 124.135C316.94 135.913 791.07 436.758 800.866 494.178Z" stroke="black" stroke-width="20"/>
</g>
<rect width="1008" height="1000" stroke="black"/>
<defs>
<filter id="filter0_d_50_51" x="252" y="114" width="563.001" height="773.391" filterUnits="userSpaceOnUse" color-interpolation-filters="sRGB">
<feFlood flood-opacity="0" result="BackgroundImageFix"/>
<feColorMatrix in="SourceAlpha" type="matrix" values="0 0 0 0 0 0 0 0 0 0 0 0 0 0 0 0 0 0 127 0" result="hardAlpha"/>
<feOffset dy="4"/>
<feGaussianBlur stdDeviation="2"/>
<feComposite in2="hardAlpha" operator="out"/>
<feColorMatrix type="matrix" values="0 0 0 0 0 0 0 0 0 0 0 0 0 0 0 0 0 0 0.75 0"/>
<feBlend mode="normal" in2="BackgroundImageFix" result="effect1_dropShadow_50_51"/>
<feBlend mode="normal" in="SourceGraphic" in2="effect1_dropShadow_50_51" result="shape"/>
</filter>
</defs>
</svg>
